# Blender 3.3.0
# www.blender.org
mtllib cozinha_parede.mtl
o parede_cozinha_sala.001
v 3.444641 3.428276 -0.170857
v 3.444641 -0.190287 -0.170857
v 3.444641 3.428276 -4.061872
v 3.270205 -0.190287 -4.061872
v 3.270205 3.428276 -4.061872
v 3.444641 3.428276 -0.020349
v 3.444127 -0.190287 -0.020349
v 6.263214 3.428276 -0.020349
v 6.263214 3.428276 -0.170857
v 6.263214 -0.190287 -0.170857
v 6.263214 -0.190287 -0.020349
v 3.270205 -0.188733 -3.807481
v 3.270205 2.786047 -2.646190
v 3.270205 -0.188733 -2.646190
v 3.270205 2.786047 -3.807481
v 3.444641 2.786047 -3.807481
v 3.441330 -0.188733 -3.807481
v 3.444641 -0.188733 -2.646190
v 3.444641 2.786047 -2.646190
v 3.444641 3.428276 2.704212
v 3.444641 -0.190287 2.704212
v 3.270205 3.428276 2.704212
v 3.270205 -0.190287 2.704212
v 6.092306 -0.144168 -0.111721
v 6.092306 0.027235 -0.111721
v 6.051475 -0.144168 -0.111721
v 6.051475 -0.144168 -0.111721
v 6.052330 -0.106027 -0.111721
v 6.054852 -0.069799 -0.111721
v 6.058917 -0.037300 -0.111721
v 6.064319 -0.010160 -0.111721
v 6.070786 0.010261 -0.111721
v 6.077996 0.022937 -0.111721
v 6.085586 0.027235 -0.111721
v 3.269660 -0.018886 2.454757
v 3.269660 -0.190288 2.454757
v 3.228829 -0.190288 2.454757
v 3.262941 -0.018886 2.454757
v 3.229684 -0.152147 2.454757
v 3.232207 -0.115919 2.454757
v 3.236271 -0.083420 2.454757
v 3.241673 -0.056280 2.454757
v 3.248141 -0.035860 2.454757
v 3.255350 -0.023183 2.454757
v 3.229684 -0.152147 -2.644772
v 3.232207 -0.115919 -2.644772
v 3.236271 -0.083420 -2.644772
v 3.241672 -0.056280 -2.644772
v 3.248140 -0.035860 -2.644772
v 3.255350 -0.023183 -2.644772
v 3.262940 -0.018886 -2.644772
v 3.269660 -0.018886 -2.644772
v 3.228829 -0.190288 -2.644772
v 3.270204 -0.018886 -3.807448
v 3.270204 -0.190288 -3.807739
v 3.229373 -0.190288 -3.807448
v 3.263484 -0.018886 -3.807448
v 3.230228 -0.152147 -3.807448
v 3.232751 -0.115919 -3.807448
v 3.236815 -0.083420 -3.807448
v 3.242216 -0.056280 -3.807448
v 3.248684 -0.035860 -3.807448
v 3.255894 -0.023183 -3.807448
v 3.270204 -0.018886 -4.061451
v 3.229373 -0.190288 -4.061451
v 3.263484 -0.018886 -4.061451
v 3.230228 -0.152147 -4.061451
v 3.232751 -0.115919 -4.061451
v 3.236815 -0.083420 -4.061451
v 3.242216 -0.056280 -4.061451
v 3.248684 -0.035860 -4.061451
v 3.255894 -0.023183 -4.061451
v 3.269660 -0.018886 -2.644976
v 3.269660 -0.190288 -2.644976
v 3.228829 -0.190288 -2.644976
v 3.262941 -0.018886 -2.644976
v 3.229684 -0.152147 -2.644976
v 3.232207 -0.115919 -2.644976
v 3.236271 -0.083420 -2.644976
v 3.241673 -0.056280 -2.644976
v 3.248141 -0.035860 -2.644976
v 3.255350 -0.023183 -2.644976
v 3.444641 -0.018885 -2.646186
v 3.444641 -0.190288 -2.646186
v 3.485472 -0.190288 -2.646186
v 3.451360 -0.018885 -2.646186
v 3.484617 -0.152147 -2.646186
v 3.482094 -0.115919 -2.646186
v 3.478030 -0.083420 -2.646186
v 3.472629 -0.056280 -2.646186
v 3.466161 -0.035860 -2.646186
v 3.458952 -0.023183 -2.646186
v 3.484617 -0.152147 -0.170856
v 3.482094 -0.115919 -0.170856
v 3.478030 -0.083420 -0.170856
v 3.472629 -0.056280 -0.170856
v 3.466161 -0.035860 -0.170856
v 3.458952 -0.023183 -0.170856
v 3.451361 -0.018885 -0.170856
v 3.444641 -0.018885 -0.170856
v 3.485473 -0.190288 -0.170856
v 3.443787 -0.018885 -4.061900
v 3.443837 -0.190288 -4.061609
v 3.487223 -0.190288 -4.061900
v 3.453112 -0.018885 -4.061900
v 3.486368 -0.152147 -4.061900
v 3.483845 -0.115919 -4.061900
v 3.479781 -0.083420 -4.061900
v 3.474380 -0.056280 -4.061900
v 3.467912 -0.035860 -4.061900
v 3.460702 -0.023183 -4.061900
v 3.486368 -0.152147 -3.807478
v 3.483845 -0.115919 -3.807478
v 3.479781 -0.083420 -3.807478
v 3.474380 -0.056280 -3.807478
v 3.467912 -0.035860 -3.807478
v 3.460702 -0.023183 -3.807478
v 3.453112 -0.018885 -3.807478
v 3.441367 -0.018885 -3.807478
v 3.487223 -0.190288 -3.807478
vn 0.0008 -0.0000 -1.0000
vn 1.0000 -0.0000 0.0003
vn -0.0000 -0.0000 1.0000
vn 1.0000 -0.0000 -0.0000
vn -0.0000 -0.0000 -1.0000
vn -0.0000 -1.0000 -0.0000
vn -0.0000 1.0000 -0.0000
vn -1.0000 -0.0000 -0.0000
vn 1.0000 -0.0001 -0.0001
vn -0.9997 0.0224 -0.0000
vn -0.9976 0.0695 -0.0000
vn -0.9923 0.1241 -0.0000
vn -0.9808 0.1952 -0.0000
vn -0.9533 0.3020 -0.0000
vn -0.8692 0.4944 -0.0000
vn -0.4927 0.8702 -0.0000
vn 0.0044 -0.0010 1.0000
vn -0.0063 0.0015 -1.0000
vn -0.0029 0.0006 -1.0000
vn 0.9997 0.0224 -0.0000
vn 0.9976 0.0695 -0.0000
vn 0.9923 0.1241 -0.0000
vn 0.9808 0.1952 -0.0000
vn 0.9533 0.3019 -0.0000
vn 0.8692 0.4944 -0.0000
vn 0.4927 0.8702 -0.0000
vn 0.9533 0.3020 -0.0000
vn -0.0041 -0.0010 -1.0000
vt 0.375000 0.000000
vt 0.125000 0.750000
vt 0.625000 0.000000
vt 0.375000 1.000000
vt 0.375000 0.000000
vt 0.125000 0.750000
vt 0.625000 0.750000
vt 0.000000 0.000000
vt 0.375000 0.750000
vt 0.125000 0.732127
vt 0.375000 0.017873
vt 0.625000 0.017873
vt 0.375000 0.017873
vt 0.125000 0.732127
vt 0.375000 0.000000
vt 0.125000 0.750000
vt 0.625000 0.000000
vt 0.625000 0.017873
vt 0.375000 0.263842
vt 0.861158 0.750000
vt 0.625000 0.986158
vt 0.375000 0.986158
vt 0.625000 0.263842
vt 0.861158 0.500000
vt 0.524458 0.000000
vt 0.625000 0.389169
vt 0.735831 0.500000
vt 0.622285 0.000000
vt 0.375000 0.389169
vt 0.622285 0.000000
vt 0.375000 0.860831
vt 0.524458 0.000000
vt 0.625000 0.860831
vt 0.735831 0.750000
vt 0.125000 0.732127
vt 0.375000 0.017873
vt 0.875000 0.500000
vt 0.625000 0.017873
vt 0.375000 0.732127
vt 0.625000 0.732127
vt 0.000000 0.000000
vt 0.000000 0.000000
vt 0.000000 0.000000
vt 0.000000 0.000000
vt 0.000000 0.000000
vt 0.000000 0.000000
vt 0.000000 0.000000
vt 0.000000 0.000000
vt 0.000000 0.000000
vt 0.000000 0.000000
vt 0.000000 0.000000
vt 0.000000 0.000000
vt 0.000000 0.000000
vt 0.000000 0.000000
vt 0.000000 0.000000
vt 0.000000 0.000000
vt 0.000000 0.000000
vt 0.000000 0.000000
vt 0.000000 0.000000
vt 0.000000 0.000000
vt 0.000000 0.000000
vt 0.000000 0.000000
vt 0.000000 0.000000
vt 0.000000 0.000000
vt 0.000000 0.000000
vt 0.000000 0.000000
vt 0.000000 0.000000
vt 0.000000 0.000000
vt 0.000000 0.000000
vt 0.000000 0.000000
vt 0.000000 0.000000
vt 0.000000 0.000000
vt 0.000000 0.000000
vt 0.000000 0.000000
vt 0.000000 0.000000
vt 0.000000 0.000000
vt 0.000000 0.000000
vt 0.000000 0.000000
vt 0.000000 0.000000
vt 0.000000 0.000000
vt 0.000000 0.000000
vt 0.000000 0.000000
vt 0.000000 0.000000
vt 0.000000 0.000000
vt 0.000000 0.000000
vt 0.000000 0.000000
vt 0.000000 0.000000
vt 0.000000 0.000000
vt 0.000000 0.000000
vt 0.000000 0.000000
vt 0.000000 0.000000
vt 0.000000 0.000000
vt 0.000000 0.000000
vt 0.000000 0.000000
vt 0.000000 0.000000
vt 0.000000 0.000000
vt 0.000000 0.000000
vt 0.000000 0.000000
vt 0.000000 0.000000
vt 0.000000 0.000000
vt 0.000000 0.000000
vt 0.000000 0.000000
vt 0.000000 0.000000
vt 0.000000 0.000000
vt 0.000000 0.000000
vt 0.000000 0.000000
vt 0.000000 0.000000
vt 0.000000 0.000000
vt 0.625000 1.000000
vt 0.625000 0.000000
vt 0.000000 0.000000
vt 0.000000 0.000000
vt 0.000000 0.000000
vt 0.000000 0.000000
vt 0.000000 0.000000
vt 0.000000 0.000000
vt 0.000000 0.000000
vt 0.000000 0.000000
vt 0.000000 0.000000
vt 0.000000 0.000000
vt 0.000000 0.000000
vt 0.000000 0.000000
vt 0.000000 0.000000
vt 0.000000 0.000000
vt 0.000000 0.000000
vt 0.000000 0.000000
vt 0.000000 0.000000
vt 0.000000 0.000000
s 1
usemtl 
f 5/9/1 3/4/1 103/109/1 4/7/1
f 18/30/2 19/32/2 16/25/2 17/28/2 103/110/2 3/5/2 1/1/2 2/3/2
f 7/12/3 11/18/3 8/13/3 6/11/3
f 9/15/4 8/13/4 11/18/4 10/17/4
f 1/1/5 9/15/5 10/17/5 2/3/5
f 15/23/3 12/19/3 17/29/3 16/26/3
f 19/33/5 18/31/5 14/22/5 13/21/5
f 15/24/6 16/27/6 19/34/6 13/20/6
f 23/40/3 21/37/3 20/35/3 22/39/3
f 22/39/7 20/35/7 6/10/7 8/14/7 9/16/7 1/2/7 3/6/7 5/9/7
f 5/9/8 4/7/8 12/19/8 15/24/8 13/21/8 14/22/8 23/40/8 22/39/8
f 6/11/9 20/36/9 21/38/9 7/12/9
s 0
f 37/43/10 39/45/10 45/51/10 53/59/10
f 40/46/11 46/52/11 45/51/11 39/45/11
f 41/47/12 47/53/12 46/52/12 40/46/12
f 42/48/13 48/54/13 47/53/13 41/47/13
f 43/49/14 49/55/14 48/54/14 42/48/14
f 44/50/15 50/56/15 49/55/15 43/49/15
f 38/44/16 51/57/16 50/56/16 44/50/16
f 52/58/7 51/57/7 38/44/7 35/41/7
f 36/42/3 35/41/3 38/44/3 44/50/3 43/49/3 42/48/3 41/47/3 40/46/3 39/45/3 37/43/3
f 56/62/10 58/64/10 67/73/10 65/71/10
f 59/65/11 68/74/11 67/73/11 58/64/11
f 60/66/12 69/75/12 68/74/12 59/65/12
f 61/67/13 70/76/13 69/75/13 60/66/13
f 62/68/14 71/77/14 70/76/14 61/67/14
f 63/69/15 72/78/15 71/77/15 62/68/15
f 57/63/16 66/72/16 72/78/16 63/69/16
f 64/70/7 66/72/7 57/63/7 54/60/7
f 55/61/17 54/60/17 57/63/17 63/69/17 62/68/17 61/67/17 60/66/17 59/65/17 58/64/17 56/62/17
f 4/8/18 65/71/18 67/73/18 68/74/18 69/75/18 70/76/18 71/77/18 72/78/18 66/72/18 64/70/18
f 74/80/3 73/79/3 76/82/3 82/88/3 81/87/3 80/86/3 79/85/3 78/84/3 77/83/3 75/81/3
f 47/53/19 48/54/19 49/55/19 81/87/19 82/88/19 76/82/19 73/79/19 74/80/19 75/81/19 77/83/19 78/84/19 46/52/19
f 85/91/20 87/93/20 93/99/20 101/107/20
f 88/94/21 94/100/21 93/99/21 87/93/21
f 89/95/22 95/101/22 94/100/22 88/94/22
f 90/96/23 96/102/23 95/101/23 89/95/23
f 91/97/24 97/103/24 96/102/24 90/96/24
f 92/98/25 98/104/25 97/103/25 91/97/25
f 86/92/26 99/105/26 98/104/26 92/98/26
f 100/106/7 99/105/7 86/92/7 83/89/7
f 84/90/5 83/89/5 86/92/5 92/98/5 91/97/5 90/96/5 89/95/5 88/94/5 87/93/5 85/91/5
f 104/112/20 106/114/20 112/120/20 120/128/20
f 107/115/21 113/121/21 112/120/21 106/114/21
f 108/116/22 114/122/22 113/121/22 107/115/22
f 109/117/23 115/123/23 114/122/23 108/116/23
f 110/118/27 116/124/27 115/123/27 109/117/27
f 111/119/25 117/125/25 116/124/25 110/118/25
f 105/113/26 118/126/26 117/125/26 111/119/26
f 119/127/7 118/126/7 105/113/7 102/108/7
f 103/111/28 102/108/28 105/113/28 111/119/28 110/118/28 109/117/28 108/116/28 107/115/28 106/114/28 104/112/28
l 27 28
l 29 30
l 31 32
l 25 34
l 24 26
l 27 26
l 28 29
l 30 31
l 32 33
l 33 34
