# Blender 3.3.0
# www.blender.org
mtllib corredor_escada.mtl
o Cube.082
v 15.574549 -0.125708 4.060426
v 15.574549 -0.301488 4.060426
v 15.574549 -0.125709 6.138202
v 15.574549 -0.301489 6.138201
v 8.473639 -0.136703 4.060426
v 8.473639 -0.301486 4.060426
v 8.473639 -0.136704 6.138202
v 8.473639 -0.301486 6.138201
v 17.219675 -2.014452 4.060421
v 17.219675 -2.014452 6.132828
v 15.724967 -0.125708 4.060424
v 17.219675 -1.668894 4.060422
v 15.724967 -0.346164 4.060424
v 15.938497 -0.346164 4.060424
v 15.938497 -0.566619 4.060424
v 16.152027 -0.566619 4.060424
v 16.152027 -0.787072 4.060424
v 16.365557 -0.787072 4.060424
v 16.365557 -1.007528 4.060424
v 16.579086 -1.007528 4.060424
v 16.579086 -1.227983 4.060424
v 16.792616 -1.227983 4.060424
v 16.792616 -1.448438 4.060424
v 17.006145 -1.448438 4.060424
v 17.006145 -1.668894 4.060424
v 17.219675 -1.668894 6.132828
v 15.724969 -0.125709 6.132828
v 17.006145 -1.668894 6.132828
v 17.006145 -1.448439 6.132828
v 16.792616 -1.448439 6.132828
v 16.792616 -1.227983 6.132828
v 16.579086 -1.227983 6.132828
v 16.579086 -1.007528 6.132828
v 16.365557 -1.007528 6.132828
v 16.365557 -0.787072 6.132828
v 16.152027 -0.787072 6.132828
v 16.152027 -0.566620 6.132828
v 15.938498 -0.566620 6.132828
v 15.938498 -0.346164 6.132828
v 15.724969 -0.346164 6.132828
v 17.069258 -2.014452 4.060421
v 17.069258 -2.014452 6.132828
v 15.574550 -0.125708 4.060424
v 17.069258 -1.824192 4.060422
v 15.574550 -0.501459 4.060424
v 15.788079 -0.501459 4.060424
v 15.788079 -0.721915 4.060424
v 16.001610 -0.721915 4.060424
v 16.001610 -0.942370 4.060424
v 16.215139 -0.942370 4.060424
v 16.215139 -1.162825 4.060424
v 16.428669 -1.162825 4.060424
v 16.428669 -1.383281 4.060424
v 16.642199 -1.383281 4.060424
v 16.642199 -1.603736 4.060424
v 16.855728 -1.603736 4.060424
v 16.855728 -1.824192 4.060424
v 17.069258 -1.824192 6.132828
v 15.574551 -0.125709 6.132828
v 16.855728 -1.824192 6.132828
v 16.855728 -1.603737 6.132828
v 16.642199 -1.603737 6.132828
v 16.642199 -1.383281 6.132828
v 16.428669 -1.383281 6.132828
v 16.428669 -1.162826 6.132828
v 16.215139 -1.162826 6.132828
v 16.215139 -0.942370 6.132828
v 16.001610 -0.942370 6.132828
v 16.001610 -0.721915 6.132828
v 15.788080 -0.721915 6.132828
v 15.788080 -0.501459 6.132828
v 15.574551 -0.501459 6.132828
v 15.619192 0.626113 4.086642
v 17.291166 -1.094341 4.086639
v 15.938497 0.299882 4.086642
v 16.152027 0.079427 4.086639
v 16.365557 -0.141028 4.086639
v 16.579086 -0.361484 4.086639
v 16.792616 -0.581939 4.086639
v 17.006145 -0.802395 4.086639
v 15.619192 0.626113 4.209250
v 17.291166 -1.094341 4.209248
v 15.938497 0.299882 4.209250
v 16.152027 0.079427 4.209250
v 16.365557 -0.141028 4.209250
v 16.579086 -0.361484 4.209250
v 16.792616 -0.581939 4.209250
v 17.006145 -0.802395 4.209248
v 15.666203 0.674648 4.086642
v 17.338177 -1.045806 4.086639
v 15.985508 0.348417 4.086639
v 16.199038 0.127962 4.086639
v 16.412567 -0.092493 4.086639
v 16.626097 -0.312949 4.086639
v 16.839626 -0.533402 4.086639
v 17.053156 -0.753857 4.086639
v 15.666203 0.674648 4.209250
v 17.338179 -1.045806 4.209248
v 15.985508 0.348417 4.209250
v 16.199038 0.127962 4.209250
v 16.412567 -0.092493 4.209250
v 16.626097 -0.312949 4.209250
v 16.839626 -0.533402 4.209250
v 17.053156 -0.753857 4.209248
v 15.438511 0.628212 4.209250
v 15.438511 0.628212 4.086642
v 15.438511 0.676748 4.209250
v 15.438511 0.676748 4.086642
v 15.653197 0.626222 4.087975
v 15.697953 0.626222 4.087975
v 15.697953 0.626222 4.177658
v 15.653197 0.626222 4.177658
v 15.653197 -0.125706 4.087975
v 15.697953 -0.125706 4.087975
v 15.697953 -0.125706 4.177657
v 15.653197 -0.125706 4.177657
v 17.147903 -0.948427 4.087975
v 17.192659 -0.948427 4.087975
v 17.192659 -0.948427 4.177657
v 17.147903 -0.948427 4.177657
v 17.147903 -1.850673 4.087974
v 17.192659 -1.850673 4.087974
v 17.192659 -1.850673 4.177657
v 17.147903 -1.850673 4.177657
v 15.866727 0.414571 4.087975
v 15.911483 0.414571 4.087975
v 15.911483 0.414571 4.177657
v 15.866727 0.414571 4.177657
v 15.866727 -0.346164 4.087975
v 15.911483 -0.346164 4.087975
v 15.911483 -0.346164 4.177657
v 15.866727 -0.346164 4.177657
v 16.080256 0.197849 4.087975
v 16.125011 0.197849 4.087975
v 16.125011 0.197849 4.177657
v 16.080256 0.197849 4.177657
v 16.080256 -0.566619 4.087975
v 16.125011 -0.566619 4.087975
v 16.125011 -0.566619 4.177657
v 16.080256 -0.566619 4.177657
v 16.293785 -0.020022 4.087975
v 16.338541 -0.020022 4.087975
v 16.338541 -0.020022 4.177657
v 16.293785 -0.020022 4.177657
v 16.293785 -0.805482 4.087975
v 16.338541 -0.805482 4.087975
v 16.338541 -0.805482 4.177657
v 16.293785 -0.805482 4.177657
v 16.507315 -0.247321 4.087975
v 16.552071 -0.247321 4.087975
v 16.552071 -0.247321 4.177657
v 16.507315 -0.247321 4.177657
v 16.507315 -1.066781 4.087975
v 16.552071 -1.066781 4.087975
v 16.552071 -1.066781 4.177657
v 16.507315 -1.066781 4.177657
v 16.720844 -0.487258 4.087975
v 16.765600 -0.487258 4.087975
v 16.765600 -0.487258 4.177657
v 16.720844 -0.487258 4.177657
v 16.720844 -1.328078 4.087975
v 16.765600 -1.328078 4.087975
v 16.765600 -1.328078 4.177657
v 16.720844 -1.328078 4.177657
v 16.934374 -0.718296 4.087975
v 16.979130 -0.718296 4.087975
v 16.979130 -0.718296 4.177657
v 16.934374 -0.718296 4.177657
v 16.934374 -1.589374 4.087974
v 16.979130 -1.589374 4.087974
v 16.979130 -1.589374 4.177657
v 16.934374 -1.589374 4.177657
v 6.501304 -0.301482 -4.061491
v 6.501304 -0.301483 -0.063481
v 6.501304 -0.136702 -4.061491
v 6.501304 -0.136703 -0.063481
v 8.473637 -0.219091 -4.061491
v 8.473637 -0.301482 -4.061491
v 8.473637 -0.136702 -4.061491
v 6.501304 -0.136706 3.487240
v 8.473637 -0.136706 3.487240
v 6.501304 -0.136707 5.787841
v 8.473637 -0.136707 5.787841
v 6.501304 -0.301489 5.787841
v 8.473637 -0.301489 5.787841
v 6.501304 -0.136707 6.135929
v 6.501304 -0.219098 6.135929
v 8.473637 -0.136707 6.135929
v 8.473637 -0.219098 6.135929
v 6.501304 -0.301489 6.135928
v 8.473637 -0.301489 6.135928
vn 1.0000 -0.0000 -0.0000
vn -0.0000 -0.0000 1.0000
vn -0.0000 -0.0000 -1.0000
vn -0.0015 1.0000 -0.0000
vn -0.0000 -1.0000 -0.0000
vn -0.0000 1.0000 -0.0000
vn -1.0000 -0.0000 -0.0000
vn -0.7155 -0.6986 -0.0000
vn -0.7183 -0.6957 -0.0000
vn -0.7147 -0.6995 -0.0000
vn 0.7155 0.6986 -0.0000
vn 0.7183 0.6957 -0.0000
vn 0.7147 0.6995 -0.0000
vn 0.7183 -0.6957 -0.0000
vn -0.0116 -0.9999 -0.0000
vn 0.0092 1.0000 -0.0000
vt 0.375000 0.000000
vt 0.375000 1.000000
vt 0.125000 0.750000
vt 0.625000 0.000000
vt 0.625000 1.000000
vt 0.875000 0.750000
vt 0.375000 0.250000
vt 0.125000 0.500000
vt 0.625000 0.250000
vt 0.875000 0.500000
vt 0.375000 0.750000
vt 0.625000 0.750000
vt 0.375000 0.500000
vt 0.625000 0.500000
vt 0.375000 0.000000
vt 0.375000 0.250000
vt 0.648220 0.750000
vt 0.420739 0.000000
vt 0.648220 0.750000
vt 0.680617 0.750000
vt 0.680617 0.750000
vt 0.713014 0.750000
vt 0.713014 0.750000
vt 0.745411 0.750000
vt 0.875000 0.750000
vt 0.625000 0.000000
vt 0.508280 0.000000
vt 0.479099 0.000000
vt 0.479099 0.000000
vt 0.449919 0.000000
vt 0.449919 0.000000
vt 0.420739 0.000000
vt 0.420739 0.250000
vt 0.648220 0.500000
vt 0.420739 0.250000
vt 0.449919 0.250000
vt 0.449919 0.250000
vt 0.479099 0.250000
vt 0.479099 0.250000
vt 0.508280 0.250000
vt 0.875000 0.500000
vt 0.625000 0.250000
vt 0.745411 0.500000
vt 0.713014 0.500000
vt 0.713014 0.500000
vt 0.680617 0.500000
vt 0.680617 0.500000
vt 0.648220 0.500000
vt 0.375000 0.000000
vt 0.375000 0.250000
vt 0.648220 0.750000
vt 0.420739 0.000000
vt 0.648220 0.750000
vt 0.680617 0.750000
vt 0.680617 0.750000
vt 0.713014 0.750000
vt 0.713014 0.750000
vt 0.745411 0.750000
vt 0.875000 0.750000
vt 0.625000 0.000000
vt 0.508280 0.000000
vt 0.479099 0.000000
vt 0.479099 0.000000
vt 0.449919 0.000000
vt 0.449919 0.000000
vt 0.420739 0.000000
vt 0.420739 0.250000
vt 0.648220 0.500000
vt 0.420739 0.250000
vt 0.449919 0.250000
vt 0.449919 0.250000
vt 0.479099 0.250000
vt 0.479099 0.250000
vt 0.508280 0.250000
vt 0.875000 0.500000
vt 0.625000 0.250000
vt 0.745411 0.500000
vt 0.713014 0.500000
vt 0.713014 0.500000
vt 0.680617 0.500000
vt 0.680617 0.500000
vt 0.648220 0.500000
vt 0.000000 0.000000
vt 0.000000 0.000000
vt 0.000000 0.000000
vt 0.000000 0.000000
vt 0.000000 0.000000
vt 0.000000 0.000000
vt 0.000000 0.000000
vt 0.000000 0.000000
vt 0.000000 0.000000
vt 0.000000 0.000000
vt 0.000000 0.000000
vt 0.000000 0.000000
vt 0.000000 0.000000
vt 0.000000 0.000000
vt 0.000000 0.000000
vt 0.000000 0.000000
vt 0.000000 0.000000
vt 0.000000 0.000000
vt 0.000000 0.000000
vt 0.000000 0.000000
vt 0.000000 0.000000
vt 0.000000 0.000000
vt 0.000000 0.000000
vt 0.000000 0.000000
vt 0.000000 0.000000
vt 0.000000 0.000000
vt 0.000000 0.000000
vt 0.000000 0.000000
vt 0.000000 0.000000
vt 0.000000 0.000000
vt 0.000000 0.000000
vt 0.000000 0.000000
vt 0.000000 0.000000
vt 0.000000 0.000000
vt 0.000000 0.000000
vt 0.000000 0.000000
vt 0.000000 0.000000
vt 0.000000 0.000000
vt 0.000000 0.000000
vt 0.000000 0.000000
vt 0.000000 0.000000
vt 0.000000 0.000000
vt 0.000000 0.000000
vt 0.000000 0.000000
vt 0.000000 0.000000
vt 0.000000 0.000000
vt 0.000000 0.000000
vt 0.000000 0.000000
vt 0.000000 0.000000
vt 0.000000 0.000000
vt 0.000000 0.000000
vt 0.000000 0.000000
vt 0.000000 0.000000
vt 0.000000 0.000000
vt 0.000000 0.000000
vt 0.000000 0.000000
vt 0.000000 0.000000
vt 0.000000 0.000000
vt 0.000000 0.000000
vt 0.000000 0.000000
vt 0.000000 0.000000
vt 0.000000 0.000000
vt 0.000000 0.000000
vt 0.000000 0.000000
vt 0.000000 0.000000
vt 0.000000 0.000000
vt 0.000000 0.000000
vt 0.000000 0.000000
vt 0.000000 0.000000
vt 0.000000 0.000000
vt 0.000000 0.000000
vt 0.000000 0.000000
vt 0.000000 0.000000
vt 0.000000 0.000000
vt 0.000000 0.000000
vt 0.000000 0.000000
vt 0.000000 0.000000
vt 0.000000 0.000000
vt 0.000000 0.000000
vt 0.000000 0.000000
vt 0.000000 0.000000
vt 0.000000 0.000000
vt 0.000000 0.000000
vt 0.000000 0.000000
vt 0.000000 0.000000
vt 0.000000 0.000000
vt 0.000000 0.000000
vt 0.000000 0.000000
vt 0.000000 0.000000
vt 0.000000 0.000000
vt 0.000000 0.000000
vt 0.000000 0.000000
vt 0.000000 0.000000
vt 0.000000 0.000000
vt 0.000000 0.000000
vt 0.000000 0.000000
vt 0.000000 0.000000
vt 0.000000 0.000000
vt 0.000000 0.000000
vt 0.000000 0.000000
vt 0.375000 0.500000
vt 0.375000 0.625000
vt 0.625000 0.500000
vt 0.625000 0.625000
vt 0.500000 0.500000
vt 0.375000 0.500000
vt 0.625000 0.500000
vt 0.625000 0.625000
vt 0.625000 0.625000
vt 0.625000 0.625000
vt 0.625000 0.625000
vt 0.375000 0.625000
vt 0.375000 0.625000
vt 0.625000 0.625000
vt 0.500000 0.625000
vt 0.625000 0.625000
vt 0.500000 0.625000
vt 0.375000 0.625000
vt 0.375000 0.625000
s 0
f 1/1/1 3/7/1 4/9/1 2/4/1
f 3/7/2 7/13/2 8/14/2 4/9/2
f 5/11/3 1/2/3 2/5/3 6/12/3
f 3/8/4 1/3/4 5/11/4 7/13/4
f 8/14/5 6/12/5 2/6/5 4/10/5
f 9/15/1 12/18/1 26/33/1 10/16/1
f 11/17/1 27/34/1 40/48/1 13/19/1
f 13/19/6 40/48/6 39/47/6 14/20/6
f 14/20/1 39/47/1 38/46/1 15/21/1
f 15/21/6 38/46/6 37/45/6 16/22/6
f 16/22/1 37/45/1 36/44/1 17/23/1
f 17/23/6 36/44/6 35/43/6 18/24/6
f 18/24/1 35/43/1 34/41/1 19/25/1
f 19/26/6 34/42/6 33/40/6 20/27/6
f 20/27/1 33/40/1 32/39/1 21/28/1
f 21/28/6 32/39/6 31/38/6 22/29/6
f 22/29/1 31/38/1 30/37/1 23/30/1
f 23/30/6 30/37/6 29/36/6 24/31/6
f 24/31/1 29/36/1 28/35/1 25/32/1
f 25/32/6 28/35/6 26/33/6 12/18/6
f 41/49/7 42/50/7 58/67/7 44/52/7
f 43/51/7 45/53/7 72/82/7 59/68/7
f 45/53/5 46/54/5 71/81/5 72/82/5
f 46/54/7 47/55/7 70/80/7 71/81/7
f 47/55/5 48/56/5 69/79/5 70/80/5
f 48/56/7 49/57/7 68/78/7 69/79/7
f 49/57/5 50/58/5 67/77/5 68/78/5
f 50/58/7 51/59/7 66/75/7 67/77/7
f 51/60/5 52/61/5 65/74/5 66/76/5
f 52/61/7 53/62/7 64/73/7 65/74/7
f 53/62/5 54/63/5 63/72/5 64/73/5
f 54/63/7 55/64/7 62/71/7 63/72/7
f 55/64/5 56/65/5 61/70/5 62/71/5
f 56/65/7 57/66/7 60/69/7 61/70/7
f 57/66/5 44/52/5 58/67/5 60/69/5
f 9/15/5 10/16/5 42/50/5 41/49/5
f 11/17/3 13/19/3 45/53/3 43/51/3
f 27/34/6 11/17/6 43/51/6 59/68/6
f 40/48/2 27/34/2 59/68/2 72/82/2
f 13/19/3 14/20/3 46/54/3 45/53/3
f 39/47/2 40/48/2 72/82/2 71/81/2
f 14/20/3 15/21/3 47/55/3 46/54/3
f 38/46/2 39/47/2 71/81/2 70/80/2
f 15/21/3 16/22/3 48/56/3 47/55/3
f 37/45/2 38/46/2 70/80/2 69/79/2
f 16/22/3 17/23/3 49/57/3 48/56/3
f 36/44/2 37/45/2 69/79/2 68/78/2
f 17/23/3 18/24/3 50/58/3 49/57/3
f 35/43/2 36/44/2 68/78/2 67/77/2
f 18/24/3 19/25/3 51/59/3 50/58/3
f 34/41/2 35/43/2 67/77/2 66/75/2
f 19/26/3 20/27/3 52/61/3 51/60/3
f 33/40/2 34/42/2 66/76/2 65/74/2
f 20/27/3 21/28/3 53/62/3 52/61/3
f 32/39/2 33/40/2 65/74/2 64/73/2
f 21/28/3 22/29/3 54/63/3 53/62/3
f 31/38/2 32/39/2 64/73/2 63/72/2
f 22/29/3 23/30/3 55/64/3 54/63/3
f 30/37/2 31/38/2 63/72/2 62/71/2
f 23/30/3 24/31/3 56/65/3 55/64/3
f 29/36/2 30/37/2 62/71/2 61/70/2
f 24/31/3 25/32/3 57/66/3 56/65/3
f 28/35/2 29/36/2 61/70/2 60/69/2
f 25/32/3 12/18/3 44/52/3 57/66/3
f 26/33/2 28/35/2 60/69/2 58/67/2
f 12/18/3 9/15/3 41/49/3 44/52/3
f 10/16/2 26/33/2 58/67/2 42/50/2
f 80/90/8 74/84/8 82/92/8 88/98/8
f 78/88/9 79/89/9 87/97/9 86/96/9
f 76/86/9 77/87/9 85/95/9 84/94/9
f 73/83/10 75/85/10 83/93/10 81/91/10
f 79/89/9 80/90/9 88/98/9 87/97/9
f 77/87/9 78/88/9 86/96/9 85/95/9
f 75/85/9 76/86/9 84/94/9 83/93/9
f 96/106/11 104/114/11 98/108/11 90/100/11
f 94/104/12 102/112/12 103/113/12 95/105/12
f 92/102/12 100/110/12 101/111/12 93/103/12
f 89/99/13 97/107/13 99/109/13 91/101/13
f 95/105/12 103/113/12 104/114/12 96/106/12
f 93/103/12 101/111/12 102/112/12 94/104/12
f 91/101/12 99/109/12 100/110/12 92/102/12
f 74/84/3 80/90/3 96/106/3 90/100/3
f 75/85/3 73/83/3 89/99/3 91/101/3
f 76/86/3 75/85/3 91/101/3 92/102/3
f 77/87/3 76/86/3 92/102/3 93/103/3
f 78/88/3 77/87/3 93/103/3 94/104/3
f 79/89/3 78/88/3 94/104/3 95/105/3
f 80/90/3 79/89/3 95/105/3 96/106/3
f 88/98/2 82/92/2 98/108/2 104/114/2
f 81/91/2 83/93/2 99/109/2 97/107/2
f 83/93/2 84/94/2 100/110/2 99/109/2
f 84/94/2 85/95/2 101/111/2 100/110/2
f 85/95/2 86/96/2 102/112/2 101/111/2
f 86/96/2 87/97/2 103/113/2 102/112/2
f 87/97/2 88/98/2 104/114/2 103/113/2
f 82/92/14 74/84/14 90/100/14 98/108/14
f 73/83/15 81/91/15 105/115/15 106/116/15
f 106/116/7 105/115/7 107/117/7 108/118/7
f 97/107/16 89/99/16 108/118/16 107/117/16
f 81/91/2 97/107/2 107/117/2 105/115/2
f 89/99/3 73/83/3 106/116/3 108/118/3
f 109/119/3 110/120/3 114/124/3 113/123/3
f 110/120/1 111/121/1 115/125/1 114/124/1
f 111/121/2 112/122/2 116/126/2 115/125/2
f 112/122/7 109/119/7 113/123/7 116/126/7
f 112/122/6 111/121/6 110/120/6 109/119/6
f 113/123/5 114/124/5 115/125/5 116/126/5
f 117/127/3 118/128/3 122/132/3 121/131/3
f 118/128/1 119/129/1 123/133/1 122/132/1
f 119/129/2 120/130/2 124/134/2 123/133/2
f 120/130/7 117/127/7 121/131/7 124/134/7
f 120/130/6 119/129/6 118/128/6 117/127/6
f 121/131/5 122/132/5 123/133/5 124/134/5
f 125/135/3 126/136/3 130/140/3 129/139/3
f 126/136/1 127/137/1 131/141/1 130/140/1
f 127/137/2 128/138/2 132/142/2 131/141/2
f 128/138/7 125/135/7 129/139/7 132/142/7
f 128/138/6 127/137/6 126/136/6 125/135/6
f 129/139/5 130/140/5 131/141/5 132/142/5
f 133/143/3 134/144/3 138/148/3 137/147/3
f 134/144/1 135/145/1 139/149/1 138/148/1
f 135/145/2 136/146/2 140/150/2 139/149/2
f 136/146/7 133/143/7 137/147/7 140/150/7
f 136/146/6 135/145/6 134/144/6 133/143/6
f 137/147/5 138/148/5 139/149/5 140/150/5
f 141/151/3 142/152/3 146/156/3 145/155/3
f 142/152/1 143/153/1 147/157/1 146/156/1
f 143/153/2 144/154/2 148/158/2 147/157/2
f 144/154/7 141/151/7 145/155/7 148/158/7
f 144/154/6 143/153/6 142/152/6 141/151/6
f 145/155/5 146/156/5 147/157/5 148/158/5
f 149/159/3 150/160/3 154/164/3 153/163/3
f 150/160/1 151/161/1 155/165/1 154/164/1
f 151/161/2 152/162/2 156/166/2 155/165/2
f 152/162/7 149/159/7 153/163/7 156/166/7
f 152/162/6 151/161/6 150/160/6 149/159/6
f 153/163/5 154/164/5 155/165/5 156/166/5
f 157/167/3 158/168/3 162/172/3 161/171/3
f 158/168/1 159/169/1 163/173/1 162/172/1
f 159/169/2 160/170/2 164/174/2 163/173/2
f 160/170/7 157/167/7 161/171/7 164/174/7
f 160/170/6 159/169/6 158/168/6 157/167/6
f 161/171/5 162/172/5 163/173/5 164/174/5
f 165/175/3 166/176/3 170/180/3 169/179/3
f 166/176/1 167/177/1 171/181/1 170/180/1
f 167/177/2 168/178/2 172/182/2 171/181/2
f 168/178/7 165/175/7 169/179/7 172/182/7
f 168/178/6 167/177/6 166/176/6 165/175/6
f 169/179/5 170/180/5 171/181/5 172/182/5
f 185/195/5 191/201/5 190/200/5 184/194/5 174/184/5 173/183/5 178/188/5
f 187/197/2 190/200/2 191/201/2 189/199/2 188/198/2 186/196/2
f 176/186/6 180/190/6 182/192/6 186/196/6 188/198/6 183/193/6 181/191/6 179/189/6 175/185/6
f 179/189/1 181/191/1 183/193/1 188/198/1 189/199/1 191/201/1 185/195/1 178/188/1 177/187/1
f 177/187/3 178/188/3 173/183/3 175/185/3 179/189/3
