# Blender 3.3.0
# www.blender.org
mtllib quarto_parede_porta.mtl
o rodape.006
v -5.866549 -0.190290 2.328503
v -5.854594 -0.056282 2.346202
v -5.865642 -0.152149 2.329959
v -5.828826 -0.018887 2.382383
v -5.868803 -0.152149 2.053534
v -5.866280 -0.115921 2.053534
v -5.862216 -0.083422 2.053534
v -5.856814 -0.056282 2.053534
v -5.850347 -0.035861 2.053534
v -5.843137 -0.023185 2.053534
v -5.835546 -0.018887 2.053534
v -5.828827 -0.018887 2.053534
v -5.869658 -0.190290 2.053534
v -5.828282 -0.018887 0.892505
v -5.869113 -0.190290 0.892505
v -5.835002 -0.018887 0.892505
v -5.868258 -0.152149 0.892505
v -5.865736 -0.115921 0.892505
v -5.861671 -0.083422 0.892505
v -5.856270 -0.056282 0.892505
v -5.849802 -0.035861 0.892505
v -5.842593 -0.023185 0.892505
v -5.868258 -0.152149 -4.061486
v -5.865736 -0.115921 -4.061486
v -5.861671 -0.083422 -4.061486
v -5.856270 -0.056282 -4.061486
v -5.849802 -0.035861 -4.061486
v -5.842593 -0.023185 -4.061486
v -5.835002 -0.018887 -4.061486
v -5.828282 -0.018887 -4.061486
v -5.828282 -0.190290 -4.061357
v -5.869113 -0.190290 -4.061066
v -5.828826 -0.018887 2.054463
v -5.828826 -0.190290 2.054463
v -5.869658 -0.190290 2.054463
v -5.842266 -0.023185 2.364020
v -5.863260 -0.115921 2.333530
v -5.835477 -0.018886 2.373772
v -5.848749 -0.035861 2.354671
v -5.859512 -0.083422 2.339037
v -5.653847 3.428275 2.445865
v -5.653847 -0.190288 2.445865
v -5.828282 3.428275 2.445865
v -5.828282 -0.190288 2.445865
v -5.653847 3.428275 -4.061486
v -5.653847 -0.190288 -4.061486
v -5.828283 3.428275 -4.061486
v -5.653847 -0.190288 -2.027130
v -5.828283 -0.190288 -2.027130
v -5.653847 2.374003 0.892476
v -5.653847 -0.190286 0.892476
v -5.653847 -0.190286 2.053768
v -5.653847 2.374003 2.053768
v -5.828282 2.374003 0.892476
v -5.828282 -0.190286 0.892476
v -5.828282 2.374003 2.053768
v -5.828282 -0.190286 2.053768
v -5.653847 -0.018886 -4.061515
v -5.612556 -0.190289 -4.061515
v -5.646668 -0.018886 -4.061515
v -5.613412 -0.152148 -4.061515
v -5.615935 -0.115920 -4.061515
v -5.619999 -0.083421 -4.061515
v -5.625400 -0.056281 -4.061515
v -5.631868 -0.035860 -4.061515
v -5.639078 -0.023184 -4.061515
v -5.611576 -0.152148 0.892480
v -5.614099 -0.115920 0.892480
v -5.618163 -0.083421 0.892480
v -5.623564 -0.056281 0.892480
v -5.630031 -0.035860 0.892480
v -5.637241 -0.023184 0.892480
v -5.644832 -0.018886 0.892480
v -5.651551 -0.018886 0.892480
v -5.610721 -0.190289 0.892480
v -2.630831 -0.190289 -0.676129
v -5.653847 -0.018886 2.053770
v -5.653847 -0.190289 2.053770
v -5.613016 -0.190289 2.053770
v -5.647127 -0.018886 2.053770
v -5.613871 -0.152148 2.053770
v -5.616394 -0.115920 2.053770
v -5.620458 -0.083421 2.053770
v -5.625859 -0.056281 2.053770
v -5.632327 -0.035860 2.053770
v -5.639537 -0.023184 2.053770
v -5.625414 -0.056281 2.409684
v -5.631882 -0.035860 2.418153
v -5.639092 -0.023184 2.427500
v -5.613426 -0.152148 2.393442
v -5.615949 -0.115920 2.397012
v -5.653402 -0.018886 2.445849
v -5.612571 -0.190289 2.391985
v -5.620013 -0.083421 2.402519
v -5.646683 -0.018886 2.437253
vn 0.0001 1.0000 -0.0000
vn -0.9997 0.0224 -0.0000
vn -0.9976 0.0695 -0.0000
vn -0.9923 0.1241 -0.0000
vn -0.9808 0.1952 -0.0000
vn -0.9533 0.3019 -0.0000
vn -0.8692 0.4944 -0.0000
vn -0.4927 0.8702 -0.0000
vn -0.0000 1.0000 -0.0000
vn 0.0279 -0.0066 -0.9996
vn -0.9578 0.2875 0.0062
vn -0.9977 0.0670 0.0111
vn -0.8804 0.4742 0.0036
vn -0.9929 0.1185 0.0100
vn -0.5135 0.8581 0.0008
vn -0.9826 0.1857 0.0084
vn -0.9997 0.0229 0.0114
vn -1.0000 -0.0000 -0.0000
vn 1.0000 -0.0000 -0.0000
vn -0.0005 -0.0005 -1.0000
vn -0.0000 -0.0000 1.0000
vn -0.0000 -0.0000 -1.0000
vn -0.0000 -1.0000 -0.0000
vn 0.9997 0.0224 -0.0004
vn 0.9976 0.0695 -0.0004
vn 0.9923 0.1241 -0.0004
vn 0.9808 0.1952 -0.0004
vn 0.9533 0.3019 -0.0004
vn 0.8692 0.4944 -0.0003
vn 0.4927 0.8702 -0.0002
vn -0.0004 -0.0001 -1.0000
vn 0.4924 0.8704 -0.0006
vn 0.8691 0.4947 -0.0010
vn 0.9923 0.1242 -0.0013
vn 0.9976 0.0695 -0.0013
vn 0.9533 0.3022 -0.0012
vn 0.9997 0.0224 -0.0013
vn 0.9807 0.1953 -0.0012
vn -0.0001 -0.0000 -1.0000
vn 0.0005 -0.0019 -1.0000
vt 0.000000 0.000000
vt 0.000000 0.000000
vt 0.000000 0.000000
vt 0.000000 0.000000
vt 0.000000 0.000000
vt 0.000000 0.000000
vt 0.000000 0.000000
vt 0.000000 0.000000
vt 0.000000 0.000000
vt 0.000000 0.000000
vt 0.000000 0.000000
vt 0.000000 0.000000
vt 0.000000 0.000000
vt 0.000000 0.000000
vt 0.000000 0.000000
vt 0.000000 0.000000
vt 0.000000 0.000000
vt 0.000000 0.000000
vt 0.000000 0.000000
vt 0.000000 0.000000
vt 0.000000 0.000000
vt 0.000000 0.000000
vt 0.000000 0.000000
vt 0.000000 0.000000
vt 0.000000 0.000000
vt 0.000000 0.000000
vt 0.000000 0.000000
vt 0.000000 0.000000
vt 0.000000 0.000000
vt 0.613188 0.750000
vt 0.000000 0.000000
vt 0.625000 0.750000
vt 0.000000 0.000000
vt 0.000000 0.000000
vt 0.000000 0.000000
vt 0.000000 0.000000
vt 0.000000 0.000000
vt 0.000000 0.000000
vt 0.000000 0.000000
vt 0.000000 0.000000
vt 0.000000 0.000000
vt 0.000000 0.000000
vt 0.375000 0.250000
vt 0.125000 0.500000
vt 0.625000 0.250000
vt 0.375000 0.500000
vt 0.625000 0.500000
vt 0.375000 0.000000
vt 0.125000 0.750000
vt 0.375000 1.000000
vt 0.625000 0.000000
vt 0.625000 1.000000
vt 0.000000 0.000000
vt 0.375000 0.750000
vt 0.625000 0.017873
vt 0.625000 0.732127
vt 0.526099 0.114456
vt 0.625000 0.463065
vt 0.661935 0.500000
vt 0.625000 0.114456
vt 0.375000 0.463065
vt 0.625000 0.217215
vt 0.375000 0.786935
vt 0.526099 0.217215
vt 0.625000 0.786935
vt 0.661935 0.750000
vt 0.526098 0.635544
vt 0.625000 0.304777
vt 0.820223 0.500000
vt 0.625000 0.635544
vt 0.375000 0.304777
vt 0.526099 0.532785
vt 0.625000 0.945223
vt 0.820223 0.750000
vt 0.625000 0.532785
vt 0.375000 0.945223
vt 0.613188 0.000000
vt 0.000000 0.000000
vt 0.613188 1.000000
vt 0.000000 0.000000
vt 0.000000 0.000000
vt 0.000000 0.000000
vt 0.000000 0.000000
vt 0.000000 0.000000
vt 0.000000 0.000000
vt 0.000000 0.000000
vt 0.000000 0.000000
vt 0.000000 0.000000
vt 0.000000 0.000000
vt 0.000000 0.000000
vt 0.000000 0.000000
vt 0.000000 0.000000
vt 0.000000 0.000000
vt 0.000000 0.000000
vt 0.000000 0.000000
vt 0.000000 0.000000
vt 0.000000 0.000000
vt 0.000000 0.000000
vt 0.000000 0.000000
vt 0.000000 0.000000
vt 0.000000 0.000000
vt 0.000000 0.000000
vt 0.000000 0.000000
vt 0.000000 0.000000
vt 0.000000 0.000000
vt 0.000000 0.000000
vt 0.000000 0.000000
vt 0.000000 0.000000
vt 0.000000 0.000000
vt 0.000000 0.000000
vt 0.000000 0.000000
vt 0.000000 0.000000
vt 0.000000 0.000000
vt 0.000000 0.000000
vt 0.000000 0.000000
s 0
usemtl 
f 12/12/1 11/11/1 38/40/1 4/4/1
f 15/15/2 17/17/2 23/23/2 32/34/2
f 18/18/3 24/24/3 23/23/3 17/17/3
f 19/19/4 25/25/4 24/24/4 18/18/4
f 20/20/5 26/26/5 25/25/5 19/19/5
f 21/21/6 27/27/6 26/26/6 20/20/6
f 22/22/7 28/28/7 27/27/7 21/21/7
f 16/16/8 29/29/8 28/28/8 22/22/8
f 30/31/9 29/29/9 16/16/9 14/14/9
f 13/13/10 5/5/10 6/6/10 7/7/10 8/8/10 9/9/10 10/10/10 11/11/10 12/12/10 33/35/10 34/36/10 35/37/10
f 2/2/11 39/41/11 9/9/11 8/8/11
f 3/3/12 37/39/12 6/6/12 5/5/12
f 39/41/13 36/38/13 10/10/13 9/9/13
f 37/39/14 40/42/14 7/7/14 6/6/14
f 36/38/15 38/40/15 11/11/15 10/10/15
f 40/42/16 2/2/16 8/8/16 7/7/16
f 1/1/17 3/3/17 5/5/17 13/13/17
f 31/32/18 49/56/18 55/70/18 54/67/18 56/72/18 57/75/18 44/47/18 43/46/18 47/54/18 30/30/18
f 46/51/19 58/77/19 45/48/19 41/43/19 42/45/19 52/62/19 53/64/19 50/57/19 51/60/19 48/55/19
f 30/30/20 58/79/20 46/52/20 31/32/20
f 43/46/9 41/44/9 45/49/9 47/54/9
f 54/68/21 55/71/21 51/61/21 50/58/21
f 52/63/22 57/76/22 56/73/22 53/65/22
f 53/66/23 56/74/23 54/69/23 50/59/23
f 42/45/21 41/44/21 43/46/21 44/47/21
f 59/80/24 61/82/24 67/88/24 75/96/24
f 62/83/25 68/89/25 67/88/25 61/82/25
f 63/84/26 69/90/26 68/89/26 62/83/26
f 64/85/27 70/91/27 69/90/27 63/84/27
f 65/86/28 71/92/28 70/91/28 64/85/28
f 66/87/29 72/93/29 71/92/29 65/86/29
f 60/81/30 73/94/30 72/93/30 66/87/30
f 74/95/9 73/94/9 60/81/9 58/78/9
f 46/53/31 58/78/31 60/81/31 66/87/31 65/86/31 64/85/31 63/84/31 62/83/31 61/82/31 59/80/31
f 92/112/9 95/115/9 80/100/9 77/97/9
f 95/115/32 89/109/32 86/106/32 80/100/32
f 86/106/33 89/109/33 88/108/33 85/105/33
f 94/114/34 91/111/34 82/102/34 83/103/34
f 91/111/35 90/110/35 81/101/35 82/102/35
f 85/105/36 88/108/36 87/107/36 84/104/36
f 78/98/22 77/97/22 80/100/22 86/106/22 85/105/22 84/104/22 83/103/22 82/102/22 81/101/22 79/99/22
f 81/101/37 90/110/37 93/113/37 79/99/37
f 87/107/38 94/114/38 83/103/38 84/104/38
f 47/54/39 45/50/39 58/79/39 30/30/39
f 32/34/40 23/23/40 24/24/40 25/25/40 26/26/40 27/27/40 28/28/40 29/29/40 30/31/40 31/33/40
