# Blender 3.3.0
# www.blender.org
mtllib banheiro_chao.mtl
o banheiro_chao
v -5.869658 -0.357193 2.445822
v -5.869658 -0.357193 -4.061482
v -5.869658 -0.190288 -4.061482
v -5.869658 -0.190288 2.445822
v -9.069628 -0.190288 -4.061482
v -9.069628 -0.190288 2.445822
v -9.070209 -0.357193 2.445822
v -9.068982 -0.357193 -4.061482
vn 1.0000 -0.0000 -0.0000
vn -0.0000 1.0000 -0.0000
vn -0.0000 -0.0000 1.0000
vn -0.0000 -0.0000 -1.0000
vn -0.0000 -1.0000 -0.0000
vt 0.375000 0.250000
vt 0.125000 0.500000
vt 0.375000 0.000000
vt 0.125000 0.750000
vt 0.625000 0.000000
vt 0.875000 0.750000
vt 0.875000 0.500000
vt 0.625000 0.250000
vt 0.809320 0.750000
vt 0.808417 0.500000
vt 0.625000 0.316583
vt 0.375000 0.316587
vt 0.191587 0.500000
vt 0.375000 0.196997
vt 0.190666 0.750000
s 0
f 2/3/1 3/5/1 4/8/1 1/1/1
f 5/9/2 6/10/2 4/7/2 3/6/2
f 6/11/3 7/12/3 1/1/3 4/8/3
f 8/14/4 5/9/4 3/6/4 2/3/4
f 7/13/5 8/15/5 2/4/5 1/2/5
