# Blender 3.3.0
# www.blender.org
mtllib banheiro_parede.mtl
o banheiro_parede
v -9.040728 -0.056259 2.409637
v -9.047196 -0.035835 2.418108
v -9.054407 -0.023156 2.427456
v -9.028738 -0.152143 2.393392
v -9.031260 -0.115908 2.396962
v -9.068721 -0.018858 2.445808
v -9.027882 -0.190290 2.391935
v -9.035325 -0.083404 2.402471
v -9.062000 -0.018858 2.437210
v -5.829074 -0.190290 2.391935
v -5.829074 -0.056259 2.409637
v -5.829074 -0.152143 2.393392
v -5.829074 -0.018858 2.445824
v -5.829074 -0.023156 2.427458
v -5.829074 -0.115908 2.396963
v -5.829074 -0.018856 2.437212
v -5.829074 -0.035835 2.418107
v -5.829074 -0.083404 2.402471
v -9.281906 -0.357193 2.697706
v -9.281906 3.428908 2.697706
v -9.281906 -0.357193 2.445825
v -9.281906 3.428908 2.445825
v -5.829076 -0.357193 2.697706
v -5.829076 3.428908 2.697706
v -5.829076 -0.357193 2.445825
v -5.829076 3.428908 2.445825
v -9.281906 -0.018970 2.697706
v -9.281906 -0.018970 2.445825
v -9.281906 -0.191010 2.445825
v -5.829076 -0.018970 2.697706
v -5.829076 -0.191010 2.697706
v -9.281906 -0.191010 2.697706
v -5.829075 -0.190955 2.445825
vn -0.0000 0.0981 -0.9952
vn -0.0000 1.0000 0.0001
vn -0.0000 0.3831 -0.9237
vn -0.0000 0.5935 -0.8048
vn -0.0000 0.9151 -0.4033
vn -0.0000 0.2553 -0.9669
vn -0.0000 0.0382 -0.9993
vn -0.0000 0.1671 -0.9859
vn -1.0000 -0.0000 -0.0000
vn -0.0000 -0.0000 -1.0000
vn 1.0000 -0.0000 -0.0000
vn -0.0000 -0.0000 1.0000
vn -0.0000 -1.0000 -0.0000
vn -0.0000 1.0000 -0.0000
vt 0.000000 0.000000
vt 0.000000 0.000000
vt 0.000000 0.000000
vt 0.000000 0.000000
vt 0.000000 0.000000
vt 0.000000 0.000000
vt 0.000000 0.000000
vt 0.000000 0.000000
vt 0.000000 0.000000
vt 0.000000 0.000000
vt 0.000000 0.000000
vt 0.000000 0.000000
vt 0.397333 0.500000
vt 0.000000 0.000000
vt 0.000000 0.000000
vt 0.000000 0.000000
vt 0.000000 0.000000
vt 0.000000 0.000000
vt 0.000000 0.000000
vt 0.125000 0.750000
vt 0.375000 0.000000
vt 0.375000 1.000000
vt 0.625000 0.000000
vt 0.625000 1.000000
vt 0.875000 0.750000
vt 0.125000 0.500000
vt 0.375000 0.250000
vt 0.625000 0.250000
vt 0.875000 0.500000
vt 0.375000 0.750000
vt 0.625000 0.750000
vt 0.375000 0.500000
vt 0.625000 0.500000
vt 0.397333 1.000000
vt 0.397333 0.000000
vt 0.397333 0.250000
vt 0.385973 0.250000
vt 0.397333 0.750000
vt 0.385973 0.750000
vt 0.385973 0.000000
vt 0.385973 1.000000
vt 0.385973 0.500000
vt 0.000000 0.000000
s 0
usemtl 
f 15/16/1 12/12/1 4/4/1 5/5/1
f 13/14/2 16/17/2 9/9/2 6/6/2
f 17/18/3 11/11/3 1/1/3 2/2/3
f 14/15/4 17/18/4 2/2/4 3/3/4
f 16/17/5 14/15/5 3/3/5 9/9/5
f 11/11/6 18/19/6 8/8/6 1/1/6
f 12/12/7 10/10/7 7/7/7 4/4/7
f 18/19/8 15/16/8 5/5/8 8/8/8
f 27/35/9 20/23/9 22/28/9 28/36/9
f 28/36/10 22/28/10 26/33/10 13/13/10
f 13/13/11 26/33/11 24/31/11 30/38/11
f 30/38/12 24/31/12 20/24/12 27/34/12
f 21/26/13 25/32/13 23/30/13 19/20/13
f 26/33/14 22/29/14 20/25/14 24/31/14
f 31/39/12 30/38/12 27/34/12 32/41/12
f 33/42/11 13/13/11 30/38/11 31/39/11
f 29/37/10 28/36/10 13/13/10 33/42/10
f 32/40/9 27/35/9 28/36/9 29/37/9
f 19/21/9 32/40/9 29/37/9 21/27/9
f 21/27/10 29/37/10 33/42/10 25/32/10
f 25/32/11 33/42/11 31/39/11 23/30/11
f 23/30/12 31/39/12 32/41/12 19/22/12
f 10/10/11 12/12/11 15/16/11 18/19/11 11/11/11 17/18/11 14/15/11 16/17/11 13/14/11 33/43/11
